<?xml version="1.0" encoding="UTF-8"?>
<svg width="12px" height="12px" viewBox="0 0 12 12" version="1.1" xmlns="http://www.w3.org/2000/svg" xmlns:xlink="http://www.w3.org/1999/xlink">
    <!-- Generator: Sketch 47 (45396) - http://www.bohemiancoding.com/sketch -->
    <title>times</title>
    <desc>Created with Sketch.</desc>
    <defs></defs>
    <g id="Symbols" stroke="none" stroke-width="1" fill="none" fill-rule="evenodd">
        <g id="times" fill-rule="nonzero" fill="#FFFFFF">
            <g id="Shape">
                <path d="M12,9.65656566 C12,9.92592593 11.9057239,10.1548822 11.7171717,10.3434343 L10.3434343,11.7171717 C10.1548822,11.9057239 9.92592593,12 9.65656566,12 C9.38720539,12 9.15824916,11.9057239 8.96969697,11.7171717 L6,8.74747475 L3.03030303,11.7171717 C2.84175084,11.9057239 2.61279461,12 2.34343434,12 C2.07407407,12 1.84511785,11.9057239 1.65656566,11.7171717 L0.282828283,10.3434343 C0.0942760943,10.1548822 0,9.92592593 0,9.65656566 C0,9.38720539 0.0942760943,9.15824916 0.282828283,8.96969697 L3.25252525,6 L0.282828283,3.03030303 C0.0942760943,2.84175084 0,2.61279461 0,2.34343434 C0,2.07407407 0.0942760943,1.84511785 0.282828283,1.65656566 L1.65656566,0.282828283 C1.84511785,0.0942760943 2.07407407,0 2.34343434,0 C2.61279461,0 2.84175084,0.0942760943 3.03030303,0.282828283 L6,3.25252525 L8.96969697,0.282828283 C9.15824916,0.0942760943 9.38720539,0 9.65656566,0 C9.92592593,0 10.1548822,0.0942760943 10.3434343,0.282828283 L11.7171717,1.65656566 C11.9057239,1.84511785 12,2.07407407 12,2.34343434 C12,2.61279461 11.9057239,2.84175084 11.7171717,3.03030303 L8.74747475,6 L11.7171717,8.96969697 C11.9057239,9.15824916 12,9.38720539 12,9.65656566 Z"></path>
            </g>
        </g>
    </g>
</svg>