<?xml version="1.0" encoding="utf-8"?>
<!-- Generator: Adobe Illustrator 20.1.0, SVG Export Plug-In . SVG Version: 6.00 Build 0)  -->
<svg version="1.1" id="Layer_1" xmlns="http://www.w3.org/2000/svg" xmlns:xlink="http://www.w3.org/1999/xlink" x="0px" y="0px"
	 viewBox="0 0 792 523" style="enable-background:new 0 0 792 523;" xml:space="preserve">
<style type="text/css">
	.st0{fill:#8D0018;stroke:#000000;stroke-width:2;stroke-miterlimit:10;}
	.st1{fill:#FFFFFF;}
	.st2{fill:#E1F3F8;}
	.st3{clip-path:url(#SVGID_2_);}
	.st4{fill:#BE2335;}
	.st5{fill:#223164;}
</style>
<path class="st0" d="M1593.7,322.8"/>
<path class="st0" d="M133.6,515.1"/>
<path class="st1" d="M525.9,231.5c-1.4-4.2-3.1-8-5-11.3c-6.7-11.6-16.3-17.8-27.8-17.8c-9.6,0-19.8,4.4-29.4,12.6
	c-1,0.8-1.9,1.6-2.9,2.5c-8.6,7.4-17.4,15.1-25.3,15.1l0,0c-5.3,0-10.2-3.6-14.9-10.9c-3.9-6.1-7.6-14.7-11.2-25.9
	c-1.1-3.5-2.2-7.3-3.3-11.3c-1.2-4.5-2.4-8.7-3.5-12.8c-2.9-10.6-5.3-19.5-7.4-27c-3.2-11.7-5.5-20.1-7.1-26.1
	c-3.4-12.2-4-14.4-4-14.5l-0.9-2.6c0,0-68.1,19.5-94.5,26.7L209,150.7l-0.5,0.1l-16.1,4.5l-11,3.1l-33.8,9.5l-10.9,3.1l-33.3,9.4
	l-10.6,3l-19,5.4c1,3.7,2,7.3,3,10.9c1.1,4,2.2,7.9,3.3,11.9c2.5,8.8,5,17.6,7.4,26.3c0.7,2.6,1.5,5.2,2.2,7.8
	c0.3,1.1,0.6,2.3,0.9,3.4c2.4,8.7,4.8,17.5,6.9,25.6c1.1,4.1,2.1,8.1,3.1,11.8c3.1,12,5.2,21.3,5.6,25c0.1,0.9,0.1,1.8,0.1,2.6
	c0,9.2-4.7,16.7-12.5,20c-3.8,1.2-8.4,1.7-13.4,1.5c-0.7-0.1-1.4-0.1-2.1-0.1c-10.6-0.7-21.3-2.6-31.7-1.9
	c-15.9,0.7-27.7,13.7-27.8,29.5c-0.1,1.5,0,3,0,4.4c0.5,10.3,4,19.2,11.5,25.8c2.3,2.1,5,3.9,8.1,5.5c15.9,7.9,29.7,1.8,40.5-9.7
	c2.5-2.6,4.9-5,7.2-7l0.3,0.3c0,0,33.5-28.5,45,10.5c0.2,0.7,0.4,1.3,0.6,2c0.4,1.3,0.9,2.6,1.4,3.9c2.1,7.7,4.3,15.3,6.4,23
	c2.8,9.9,5.6,19.8,8.3,29.7c2.5,9,5.1,18,7.6,26.9c1.6,5.7,3.2,11.4,4.8,17c38.7-11.1,76.6-21.4,114.1-32.2
	c7.8-2.1,8.2-7.7,3.9-13.5c-1.5-2-3.1-4-4.8-6c-4.2-5-8.6-9.9-12.2-15.1c-2.1-2.9-3.9-5.9-5.4-8.9c-4.9-10-6.3-20.5-3.3-31.2
	c1-3.5,2.5-7.1,4.4-10.7c10.8-18.7,28.1-26.1,49.1-25.5c12.1,0.4,22.3,4.4,29.8,11.7c4.6,4.5,8.1,10.2,10.5,17.1
	c1.2,3.6,1.8,7.5,2,11.4c0.5,7.2-0.1,14.7,0.2,21.9c0,2.4-0.3,4.9-0.7,7.4c-0.4,2.9-1,5.8-1.3,8.6c-0.8,7.6,2.8,11.6,10.3,9.6
	c31.2-8.6,112.3-31.9,112.3-31.9c-1.9-6.2-4-13-6.1-20.1c-2.5-8.7-5.1-17.8-7.6-26.9c-2.8-10.3-5.5-20.4-7.8-29.8
	c-2.6-10.4-4.8-19.9-6.2-27.4c-1.5-7.6-2.2-13.1-1.9-15.6c1.7-12.8,16.1-14.7,24.5-14.7c4.8,0,10.1,0.6,15.8,1.8
	c3.7,0.8,7.5,1.1,11.3,1.1c13.8,0,25.4-5,31.7-13.8c2.5-3.5,4.9-8.7,5.2-15.7C528.6,242.7,527.9,237.5,525.9,231.5z"/>
<path class="st2" d="M659.9,352.7c14.9-7,31.5-11.3,47.5-16.2c22.6-7,44.8-13.9,69.4-21.4c-1.7-5.2-3.1-9.9-4.4-14.3
	c-8.1-26.2-16.2-52.2-24-78.4L684.3,14.2l-297,85.7c0,0,3.3,10.1,23.1,83c4.5,16.7,13.9,44.8,25.1,44.8c6.2,0,14.8-7.4,22.4-14
	l0.1-0.1c0.9-0.8,1.8-1.6,2.8-2.4c10.5-9,21.7-13.7,32.4-13.7c17,0,30.1,11.5,37.1,32.3c5.9,17.5,1.4,29-3.3,35.5
	c-7.2,9.9-20.1,15.6-35.4,15.6c-4.1,0-8.2-0.4-12.2-1.2c-5.4-1.1-10.4-1.7-15-1.7c-8.5,0-18.9,1.9-20.1,10.8
	c-1.2,8.7,15.2,72.1,29.4,118c29.2-8.4,59.7-16.9,88.4-25.9c34.5-10.7,56.6-7.1,46.8,38.6c-3.3,15.4-0.5,30.3,15,38.9
	c14.2,7.8,28.2,5.1,40.6-4.2c12.9-9.1,17-26.2,8.5-39.7c-5.8-9.5-14.1-17.7-20.9-26.7C640.8,372.9,642.7,360.4,659.9,352.7z"/>
<g>
	<g>
		<defs>
			<path id="SVGID_1_" d="M525.9,231.2c-1.4-4.2-3.1-8-5-11.3c-6.7-11.6-16.3-17.9-27.8-17.9c-9.6,0-19.8,4.4-29.4,12.6
				c-1,0.8-1.9,1.7-2.9,2.5c-8.6,7.4-17.4,15.1-25.3,15.1l0,0c-5.3,0-10.2-3.6-14.9-10.9c-3.9-6.1-7.6-14.7-11.2-25.9
				c-1.1-3.5-2.2-7.3-3.3-11.3c-1.2-4.5-2.4-8.8-3.5-12.8c-2.9-10.6-5.3-19.5-7.4-27c-3.2-11.7-5.5-20.1-7.1-26.1
				c-3.4-12.2-4-14.5-4-14.5l-0.9-2.6c0,0-68.2,19.6-94.6,26.8l-79.8,22.5l-0.5,0.1l-16.1,4.5l-11.1,3.1l-33.9,9.5l-10.9,3.1
				l-33.3,9.4l-10.6,3l-19,5.4c1,3.7,2,7.3,3,10.9c1.1,4,2.2,7.9,3.3,11.9c2.5,8.9,5,17.6,7.4,26.3c0.7,2.6,1.5,5.2,2.2,7.8
				c0.3,1.1,0.6,2.3,0.9,3.4c2.4,8.7,4.8,17.5,6.9,25.7c1.1,4.1,2.1,8.1,3.1,11.9c3.1,12,5.2,21.4,5.6,25.1c0.1,0.9,0.1,1.8,0.1,2.6
				c0,9.2-4.7,16.7-12.5,20c-3.8,1.2-8.4,1.7-13.5,1.5c-0.7-0.1-1.4-0.1-2.1-0.1c-10.6-0.7-21.3-2.6-31.7-1.9
				c-15.9,0.7-27.7,13.7-27.9,29.5c-0.1,1.5,0,3,0,4.4c0.5,10.3,4,19.2,11.5,25.8c2.3,2.1,5,3.9,8.1,5.5c15.9,7.9,29.8,1.8,40.5-9.7
				c2.5-2.6,4.9-5,7.2-7l0.3,0.3c0,0,33.5-28.5,45,10.5c0.2,0.7,0.4,1.3,0.6,2c0.4,1.3,0.9,2.6,1.4,3.9c2.1,7.7,4.3,15.3,6.4,23
				c2.8,9.9,5.6,19.8,8.4,29.7c2.5,9,5.1,18,7.6,27c1.6,5.7,3.2,11.4,4.8,17.1c38.8-11.1,76.7-21.4,114.3-32.3
				c7.8-2.1,8.2-7.7,3.9-13.5c-1.5-2-3.1-4-4.8-6c-4.2-5-8.6-9.9-12.2-15.1c-2.1-2.9-3.9-5.9-5.4-9c-4.9-10-6.3-20.5-3.3-31.2
				c1-3.5,2.5-7.1,4.4-10.7c10.8-18.7,28.1-26.1,49.2-25.5c12.1,0.4,22.3,4.4,29.8,11.7c4.6,4.5,8.2,10.2,10.5,17.1
				c1.2,3.6,1.8,7.5,2,11.4c0.5,7.2-0.1,14.7,0.2,21.9c0,2.4-0.3,4.9-0.7,7.4c-0.4,2.9-1,5.8-1.3,8.6c-0.8,7.6,2.8,11.6,10.3,9.6
				c31.2-8.6,112.4-31.9,112.4-31.9c-1.9-6.2-4-13-6.1-20.1c-2.5-8.7-5.1-17.9-7.6-27c-2.8-10.3-5.5-20.5-7.8-29.9
				c-2.6-10.5-4.8-19.9-6.2-27.4c-1.5-7.6-2.2-13.2-1.9-15.6c1.7-12.8,16.1-14.7,24.6-14.7c4.8,0,10.2,0.6,15.9,1.8
				c3.7,0.8,7.5,1.2,11.3,1.2c13.8,0,25.4-5,31.7-13.8c2.5-3.5,5-8.7,5.2-15.8C528.6,242.4,527.9,237.2,525.9,231.2z"/>
		</defs>
		<clipPath id="SVGID_2_">
			<use xlink:href="#SVGID_1_"  style="overflow:visible;"/>
		</clipPath>
		<g class="st3">
			<g>
				<g>
					<g>
						
							<rect x="178.5" y="-25.9" transform="matrix(0.9608 -0.2774 0.2774 0.9608 19.1947 117.1518)" class="st4" width="490.3" height="33.2"/>
						
							<rect x="196.7" y="36.8" transform="matrix(0.9608 -0.2774 0.2774 0.9608 2.5312 124.6639)" class="st4" width="490.3" height="33.2"/>
						
							<rect x="214.8" y="99.6" transform="matrix(0.9608 -0.2774 0.2774 0.9608 -14.1771 132.1561)" class="st4" width="490.3" height="33.2"/>
						
							<rect x="232.4" y="161.5" transform="matrix(0.9608 -0.2774 0.2774 0.9608 -30.6511 139.4624)" class="st4" width="490.3" height="33.2"/>
						
							<rect x="-70.9" y="268.1" transform="matrix(0.9608 -0.2774 0.2774 0.9608 -65.7115 104.928)" class="st4" width="817.7" height="33.2"/>
						
							<rect x="-51.6" y="334.4" transform="matrix(0.9608 -0.2774 0.2774 0.9608 -83.3617 112.8658)" class="st4" width="817.7" height="33.2"/>
						
							<rect x="-32.1" y="401.5" transform="matrix(0.9608 -0.2774 0.2774 0.9608 -101.2136 120.918)" class="st4" width="817.7" height="33.2"/>
					</g>
					<path class="st5" d="M-131.3,133.7l63,218.3L247,261.9L184,42.6L-131.3,133.7z M-36,331.5l-9.8-3l-6.2,7.6l-0.5-10.2l-9.1-4.3
						l9.2-2.6l0.7-10.7l6.5,8.7l9.2-2.6l-5,8.4L-36,331.5z M-53.5,279.7l5.3,8.8l-10.1-2.8l-6.2,7.6l-0.5-10.2l-9.1-4.3l9.2-2.6
						l0.7-10.7l6.5,8.7l9.2-2.6L-53.5,279.7z M-66.1,236.3l5.3,8.8l-9.8-3l-6.2,7.6l-0.5-10.2l-9.1-4.3l9.2-2.6l0.7-10.7l6.5,8.7
						l9.2-2.6L-66.1,236.3z M-78.7,192.3l5.3,8.8l-9.8-3l-6.2,7.6l-0.5-10.2l-9.1-4.3l9.2-2.6l0.7-10.7l6.5,8.7l9.2-2.6L-78.7,192.3
						z M-91.3,149.1l5.3,8.8l-9.8-3l-6.2,7.6l-0.5-10.2l-9.1-4.3l9.2-2.6l0.7-10.7l6.5,8.7l9.2-2.6L-91.3,149.1z M-15.9,304.1
						l-9.8-3l-6.2,7.6l-0.5-10.2l-9.1-4.3l9.2-2.6l0.7-10.7l6.5,8.7l9.2-2.6l-5,8.4L-15.9,304.1z M-33.6,252l5.3,8.8l-9.8-3
						l-6.2,7.6l-0.8-10.2l-9.1-4.3l9.2-2.6l0.7-10.7l6.5,8.7l9.2-2.6L-33.6,252z M-46.5,207.8l5.4,9.1l-9.8-3l-6.2,7.6l-0.5-10.2
						l-9.1-4.3l9.2-2.6l0.7-10.7l6.5,8.7l9.2-2.6L-46.5,207.8z M-58.8,164.8l5.1,8.8l-9.8-3l-6.2,7.6l-0.5-10.2l-9.1-4.3l9.2-2.6
						l0.7-10.7l6.5,8.7l9.2-2.6L-58.8,164.8z M15.7,316.5l-9.8-3l-6.2,7.9l-0.5-10.2l-9.1-4.3l9.2-2.6L0,293.6l6.5,8.7l9.2-2.6
						l-5.2,8.1L15.7,316.5z M-1.8,265l5.3,8.8l-10.1-3l-6.2,7.6l-0.5-10.2l-9.1-4.3l9.2-2.6l0.7-10.7l6.5,8.7l9.2-2.6L-1.8,265z
						 M-14.4,221.5l5.3,8.8l-9.8-3l-6.2,7.6l-0.8-10.2l-9.1-4.2l9.2-2.6l0.7-10.7l6.5,8.7l9.2-2.6L-14.4,221.5z M-27.2,177.4
						l5.3,8.8l-9.7-3l-6.2,7.6l-0.5-10.2l-9.1-4.3l9.2-2.6l0.7-10.7l6.5,8.7l9.2-2.6L-27.2,177.4z M-39.6,134.3l5.3,8.8l-9.8-3
						l-6.2,7.6l-0.8-10.2l-9.1-4.3l9.2-2.6l0.7-10.7l6.5,8.7l9.2-2.6L-39.6,134.3z M35.8,289.4l-9.8-3l-6.2,7.6l-0.5-10.2l-9.1-4.3
						l9.2-2.6l0.7-10.7l6.5,8.7l9.2-2.6l-5,8.1L35.8,289.4z M18.1,237l5.3,8.8l-9.8-3l-6.2,7.6l-0.5-10.2l-9.1-4.3l9.2-2.6l0.7-10.7
						l6.5,8.7l9.2-2.6L18.1,237z M5.2,193.1l5.3,8.8l-9.8-3l-6.2,7.6L-6,196.3l-9.1-4.3l9.2-2.6l0.7-10.7l6.5,8.7l9.2-2.6L5.2,193.1
						z M-7.1,149.7l5.3,8.8l-9.8-3l-6.5,8l-0.5-10.2l-9.1-4.3l9.2-2.6l0.7-10.7l6.5,8.7l9.2-2.6L-7.1,149.7z M69.3,301.2l-9.8-3
						l-6.2,7.6l-0.5-10.2l-9.1-4.3l9.2-2.6l0.7-10.7l6.5,8.7l9.2-2.6l-5,8.4L69.3,301.2z M51.4,249.4l5.3,8.8l-9.8-2.8l-6.2,7.6
						l-0.5-10.2l-9.1-4.3l9.2-2.6l0.7-10.7l6.5,8.7l9.3-2.6L51.4,249.4z M39.2,206.1l5.3,8.8l-9.8-3l-6.2,7.6L28,209.3l-9.1-4.3
						l9.2-2.6l0.7-10.7l6.5,8.7l9.2-2.6L39.2,206.1z M26.3,162.1l5.3,8.8l-9.8-3l-6.2,7.6l-0.5-10.2L6,161l9.2-2.6l0.7-10.7l6.5,8.7
						l9.2-2.6L26.3,162.1z M14,118.7l5.3,8.8l-9.8-3L3,132.2L2.5,122l-9.1-4.3l9.2-2.6l0.7-10.7l6.5,8.7l9.2-2.6L14,118.7z
						 M89.4,273.9l-9.8-3l-6.2,7.6l-0.5-10.2l-9.1-4.3l9.2-2.6l0.7-10.7l6.5,8.7l9.2-2.6l-5.2,8.4L89.4,273.9z M71.4,221.7l5.3,8.8
						l-9.8-3l-6.2,7.6l-0.5-10.2l-9.1-4.3l9.2-2.6l0.7-10.7l6.5,8.7l9.2-2.6L71.4,221.7z M58.8,177.5l5.3,8.8l-9.8-3l-6.2,7.6
						l-0.5-10.2l-9.1-4.3l9.2-2.6l0.7-10.7l6.5,8.7l9.2-2.6L58.8,177.5z M46.2,134.1l5.3,8.8l-9.8-3l-6.2,7.6L35,137.3l-9.1-4.3
						l9.2-2.6l0.7-10.7l6.5,8.7l9.2-2.6L46.2,134.1z M121,286.3l-9.8-3l-6.2,7.6l-0.5-10.2l-9.1-4.3l9.2-2.6l0.7-10.7l6.5,8.7
						l9.2-2.6l-5,8.4L121,286.3z M103.3,234.3l5.3,8.8l-10.1-2.8l-6.2,7.6l-0.5-10.2l-9.1-4.3l9.2-2.6l0.7-10.7l6.5,8.7l9.2-2.6
						L103.3,234.3z M90.8,191l5.3,8.8l-9.8-3l-6.2,7.6l-0.5-10.2l-9.1-4.3l9.2-2.6l0.7-10.7l6.5,8.7l9.2-2.6L90.8,191z M77.9,147
						l5.3,8.8l-9.8-3l-6.2,7.6l-0.5-10.2l-9.1-4.3l9.2-2.6l0.7-10.7l6.5,8.7l9.2-2.6L77.9,147z M65.6,103.7l5.3,8.8l-9.8-3l-6.2,7.6
						l-0.4-10.2l-9.1-4.3l9.2-2.6l0.7-10.7l6.5,8.7l9.2-2.6L65.6,103.7z M141,258.8l-9.8-3l-6.2,7.6l-0.5-10.2l-9.1-4.3l9.2-2.6
						l0.7-10.7l6.5,8.7l9.2-2.6l-5.2,8.4L141,258.8z M123,206.7l5.3,8.8l-9.8-2.8l-6.2,7.6l-0.5-10.2l-9.1-4.3l9.2-2.6l0.7-10.7
						l6.5,8.7l9.2-2.6L123,206.7z M110.4,162.7l5.3,8.8l-9.8-3l-6.2,7.6l-0.5-10.2l-9.1-4.3l9.2-2.6l0.7-10.7l6.5,8.7l9.2-2.6
						L110.4,162.7z M97.9,119.4l5.3,8.8l-9.8-3l-6.2,7.6l-0.5-10.2l-9.1-4.3l9.2-2.6l0.7-10.7l6.5,8.7l9.2-2.6L97.9,119.4z
						 M172.9,271.2l-9.8-3l-6.2,7.9l-0.5-10.2l-9.1-4.3l9.2-2.6l0.7-10.7l6.5,8.7l9.2-2.6l-5,8.4L172.9,271.2z M155.3,219.6l5.4,8.7
						l-10.1-3.1l-6.2,7.6l-0.5-10.2l-9.1-4.3l9.2-2.6l0.7-10.7l6.5,8.7l9.2-2.6L155.3,219.6z M142.7,176.2l5.3,8.8l-9.8-3l-6.2,7.6
						l-0.5-10.2l-9.1-4.3l9.2-2.6l0.8-10.7l6.5,8.7l9.2-2.6L142.7,176.2z M130,131.9l5.3,8.8l-9.8-3l-6.2,7.6l-0.5-10.2l-9.1-4.3
						l9.2-2.6l0.7-10.7l6.5,8.7l9.2-2.6L130,131.9z M117.6,88.6l5.3,8.8l-9.8-3l-6.2,7.6l-0.5-10.2l-9.1-4.3l9.2-2.6l0.7-10.7
						l6.5,8.7l9.2-2.6L117.6,88.6z M192.9,243.7l-9.8-3l-6.2,7.6l-0.5-10.2l-9.1-4.3l9.2-2.6l0.7-10.7l6.5,8.7l9.2-2.6l-5,8.4
						L192.9,243.7z M175.3,191.6l5.3,8.8l-9.8-3l-6.2,7.6l-0.5-10.2l-9.1-4.3l9.2-2.6l0.7-10.7l6.5,8.7l9.2-2.6L175.3,191.6z
						 M162.3,147.7l5.3,8.8l-9.8-3l-6.2,7.6l-0.5-10.2l-9.1-4.3l9.2-2.6l0.7-10.7l6.5,8.7l9.2-2.6L162.3,147.7z M150,104.3l5.3,8.8
						l-9.8-3l-6.2,7.6l-0.5-10.2l-9.1-4.3l9.2-2.6l0.7-10.7l6.5,8.7l9.2-2.6L150,104.3z M226,255.9l-9.8-3l-6.2,7.6l-0.5-10.2
						l-9.1-4.3l9.2-2.6l0.7-10.7l6.5,8.7l9.2-2.6l-5,8.4L226,255.9z M208.2,204l5.3,8.8l-9.8-2.8l-6.2,7.6l-0.5-10.2l-9.1-4.3
						l9.2-2.6l0.7-10.7l6.5,8.7l9.2-2.6L208.2,204z M195.7,160.7l5.3,8.8l-9.8-3l-6.2,7.6l-0.5-10.2l-9.1-4.3l9.2-2.6l0.7-10.7
						l6.5,8.7l9.2-2.6L195.7,160.7z M183.2,116.9l5.3,8.8l-9.8-3l-6.2,7.6l-0.5-10.2l-9.1-4.3l9.2-2.6l0.7-10.7l6.5,8.7l9.2-2.6
						L183.2,116.9z M170.5,73.4l5.3,8.8l-9.8-3l-6.2,7.6l-0.5-10.2l-9.1-4.3l9.2-2.6l0.7-10.7l6.5,8.7l9.2-2.6L170.5,73.4z"/>
				</g>
			</g>
		</g>
	</g>
</g>
<path class="st0" d="M2405.7,322.8"/>
<path class="st0" d="M1755.6,505.1"/>
</svg>
